<svg xmlns="http://www.w3.org/2000/svg" version="1.1" xmlns:xlink="http://www.w3.org/1999/xlink" xmlns:svgjs="http://svgjs.dev/svgjs" viewBox="0 0 800 800"><g transform="matrix(1,0,0,1,0,0)"><path d="M680.1510035722558 628.487066304502C682.532762561744 627.1122047805118 685.467237438256 627.1122047805118 687.8489964277442 628.4874512041448L730.1510067672236 652.9104882371098C732.5327657567117 654.2853497611 734.0000031949678 656.8268421023395 734.0000031949678 659.5769500499628V708.4230241158928C734.0000031949678 711.1731320635159 732.5327657567117 713.7146244047555 730.1510067672236 715.0898708283884L687.8489964277442 739.5129078613534C685.467237438256 740.8877693853436 682.532762561744 740.8877693853436 680.1510035722558 739.5125229617106L637.8489932327764 715.0894859287456C635.4672342432883 713.7146244047555 633.9999968050322 711.1731320635159 633.9999968050322 708.4230241158928V659.5769500499628C633.9999968050322 656.8268421023395 635.4672342432883 654.2853497611 637.8489932327764 652.910103337467L680.1510035722558 628.487066304502Z " stroke-width="4" stroke="#ff3895" fill="none" opacity="0.1" transform="rotate(100, 400, 400)"></path><path d="M669.1807419946091 604.6291870478483C671.9639974994681 603.0225631526712 675.3931409980208 603.0225631526712 678.1763965028797 604.6296368305736L727.6093171567286 633.1697001062385C730.3925726615876 634.7763240014157 732.1071444108638 637.7462393373212 732.1071444108638 640.959936910401V698.0400634617306C732.1071444108638 701.2537610348103 730.3925726615876 704.2236763707158 727.6093171567286 705.8307500486184L678.1763965028797 734.3708133242832C675.3931409980208 735.9774372194603 671.9639974994681 735.9774372194603 669.1807419946091 734.3703635415578L619.7478213407603 705.8303002658929C616.9645658359013 704.2236763707158 615.2499940866251 701.2537610348103 615.2499940866251 698.0400634617306V640.959936910401C615.2499940866251 637.7462393373212 616.9645658359013 634.7763240014157 619.7478213407603 633.1692503235131L669.1807419946091 604.6291870478483Z " stroke-width="4.375" stroke="#fb3e9a" fill="none" opacity="0.13214285714285715" transform="rotate(97.57142857142857, 400, 400)"></path><path d="M658.2104804169624 580.7713001618C661.3952324371921 578.932913895436 665.3190445577856 578.932913895436 668.5037965780153 580.7718148276081L725.0676275462336 613.4289043459727C728.2523795664633 615.2672906123368 730.21428562676 618.6656289429084 730.21428562676 622.3429161414446V687.6570951781739C730.21428562676 691.33438237671 728.2523795664633 694.7327207072817 725.0676275462336 696.5716216394537L668.5037965780153 729.2287111578185C665.3190445577856 731.0670974241825 661.3952324371921 731.0670974241825 658.2104804169624 729.2281964920104L601.6466494487443 696.5711069736458C598.4618974285145 694.7327207072817 596.4999913682177 691.33438237671 596.4999913682177 687.6570951781739V622.3429161414446C596.4999913682177 618.6656289429084 598.4618974285145 615.2672906123368 601.6466494487443 613.4283896801646L658.2104804169624 580.7713001618Z " stroke-width="4.75" stroke="#f7439f" fill="none" opacity="0.1642857142857143" transform="rotate(95.14285714285714, 400, 400)"></path><path d="M647.2402188393157 556.9133980169627C650.8264673749163 554.8432493794116 655.2449481175503 554.8432493794116 658.831196653151 556.9139775658533L722.5259379357385 593.6880933269179C726.1121864713391 595.7582419644688 728.3214268426561 599.5850032897065 728.3214268426561 603.7258801136991V677.274111635828C728.3214268426561 681.4149884598207 726.1121864713391 685.2417497850585 722.5259379357385 687.3124779715001L658.831196653151 724.0865937325646C655.2449481175503 726.1567423701156 650.8264673749163 726.1567423701156 647.2402188393157 724.0860141836739L583.5454775567281 687.3118984226094C579.9592290211274 685.2417497850585 577.7499886498105 681.4149884598207 577.7499886498105 677.274111635828V603.7258801136991C577.7499886498105 599.5850032897065 579.9592290211274 595.7582419644688 583.5454775567281 593.6875137780271L647.2402188393157 556.9133980169627Z " stroke-width="5.125" stroke="#f348a4" fill="none" opacity="0.19642857142857145" transform="rotate(92.71428571428572, 400, 400)"></path><path d="M636.2699572616689 533.0555035015198C640.2577023126403 530.7535924927819 645.1708516773149 530.7535924927819 649.1585967282864 533.0561479334931L719.9842483252435 573.9472899372574C723.9719933762149 576.2492009459953 726.4285680585522 580.5043852658991 726.4285680585522 585.1088517153482V666.8911357228768C726.4285680585522 671.495602172326 723.9719933762149 675.7507864922297 719.9842483252435 678.0533419329411L649.1585967282864 718.9444839367053C645.1708516773149 721.2463949454432 640.2577023126403 721.2463949454432 636.2699572616689 718.943839504732L565.4443056647119 678.0526975009677C561.4565606137404 675.7507864922297 558.9999859314031 671.495602172326 558.9999859314031 666.8911357228768V585.1088517153482C558.9999859314031 580.5043852658991 561.4565606137404 576.2492009459953 565.4443056647119 573.9466455052841L636.2699572616689 533.0555035015198Z " stroke-width="5.5" stroke="#f04da8" fill="none" opacity="0.2285714285714286" transform="rotate(90.28571428571429, 400, 400)"></path><path d="M625.2997109428111 509.1976318742606C629.6889525091535 506.66395849433576 635.0967704958688 506.66395849433576 639.4860120622111 509.1983411893166L717.4425739735375 554.2065094357806C721.8318155398797 556.7401828157055 724.5357245332374 561.4237901302754 724.5357245332374 566.491846205181V656.5081826981092C724.5357245332374 661.5762387730148 721.8318155398797 666.2598460875847 717.4425739735375 668.7942287825655L639.4860120622111 713.8023970290295C635.0967704958688 716.3360704089544 629.6889525091535 716.3360704089544 625.2997109428111 713.8016877139736L547.3431490314848 668.7935194675096C542.9539074651425 666.2598460875847 540.2499984717849 661.5762387730148 540.2499984717849 656.5081826981092V566.491846205181C540.2499984717849 561.4237901302754 542.9539074651425 556.7401828157055 547.3431490314848 554.2058001207247L625.2997109428111 509.1976318742606Z " stroke-width="5.875" stroke="#eb52ad" fill="none" opacity="0.26071428571428573" transform="rotate(87.85714285714286, 400, 400)"></path><path d="M614.3294493651645 485.3397373588178C619.1201874468776 482.57430160770605 625.0226740556335 482.57430160770605 629.8134121373466 485.34051155695636L714.9008843630425 534.4657060461203C719.6916224447556 537.2311417972321 722.6428657491335 542.343172106468 722.6428657491335 547.8748178068302V646.125206785158C722.6428657491335 651.6568524855201 719.6916224447556 656.768882794756 714.9008843630425 659.5350927440063L629.8134121373466 708.6602872331703C625.0226740556335 711.425722984282 619.1201874468776 711.425722984282 614.3294493651645 708.6595130350316L529.2419771394686 659.5343185458678C524.4512390577555 656.768882794756 521.4999957533776 651.6568524855201 521.4999957533776 646.125206785158V547.8748178068302C521.4999957533776 542.343172106468 524.4512390577555 537.2311417972321 529.2419771394686 534.4649318479817L614.3294493651645 485.3397373588178Z " stroke-width="6.25" stroke="#e756b1" fill="none" opacity="0.2928571428571429" transform="rotate(85.42857142857143, 400, 400)"></path><path d="M603.3591877875177 461.4818352139804C608.5514223846018 458.48463709168175 614.9485776153982 458.48463709168175 620.1408122124823 461.4826742952017L712.3591947525474 514.7248950270654C717.5514293496315 517.7220931493641 720.7500069650297 523.2625464532662 720.7500069650297 529.2577817790848V635.7422232428122C720.7500069650297 641.7374585686308 717.5514293496315 647.2779118725329 712.3591947525474 650.2759490760527L620.1408122124823 703.5181698079164C614.9485776153982 706.5153679302151 608.5514223846018 706.5153679302151 603.3591877875177 703.5173307266953L511.1408052474526 650.2751099948315C505.9485706503686 647.2779118725329 502.7499930349703 641.7374585686308 502.7499930349703 635.7422232428122V529.2577817790848C502.7499930349703 523.2625464532662 505.9485706503686 517.7220931493641 511.1408052474526 514.7240559458442L603.3591877875177 461.4818352139804Z " stroke-width="6.625" stroke="#e35ab5" fill="none" opacity="0.32500000000000007" transform="rotate(83, 400, 400)"></path><path d="M592.388926209871 437.62393306914305C597.9826573223258 434.3949725756575 604.874481175163 434.3949725756575 610.4682122876179 437.62483703344697L709.8175051420524 494.98408400801054C715.4112362545072 498.2130445014961 718.8571481809258 504.18192080006423 718.8571481809258 510.6407457513393V625.3592397004663C718.8571481809258 631.8180646517415 715.4112362545072 637.7869409503096 709.8175051420524 641.0168054080991L610.4682122876179 698.3760523826626C604.874481175163 701.6050128761482 597.9826573223258 701.6050128761482 592.388926209871 698.3751484183588L493.0396333554365 641.0159014437952C487.4459022429816 637.7869409503096 483.99999031656307 631.8180646517415 483.99999031656307 625.3592397004663V510.6407457513393C483.99999031656307 504.18192080006423 487.4459022429816 498.2130445014961 493.0396333554365 494.9831800437066L592.388926209871 437.62393306914305Z " stroke-width="7" stroke="#df5eba" fill="none" opacity="0.3571428571428572" transform="rotate(80.57142857142857, 400, 400)"></path><path d="M581.4186646322244 413.7660538124893C587.41389226005 410.30533094781686 594.8003847349278 410.30533094781686 600.7956123627534 413.76702265987586L707.2758155315573 475.2432958771392C713.2710431593831 478.70401874181175 716.964289396822 485.10131803504595 716.964289396822 492.0237326117775V614.9762790463042C716.964289396822 621.8986936230358 713.2710431593831 628.29599291627 707.2758155315573 631.757684628329L600.7956123627534 693.2339578455924C594.8003847349278 696.694680710265 587.41389226005 696.694680710265 581.4186646322244 693.2329889982059L474.93846146342037 631.7567157809425C468.9432338355947 628.29599291627 465.2499875981558 621.8986936230358 465.2499875981558 614.9762790463042V492.0237326117775C465.2499875981558 485.10131803504595 468.9432338355947 478.70401874181175 474.93846146342037 475.2423270297527L581.4186646322244 413.7660538124893Z " stroke-width="7.375" stroke="#db61be" fill="none" opacity="0.38928571428571435" transform="rotate(78.14285714285714, 400, 400)"></path><path d="M570.4484183133666 389.9081592970465C576.8451424565632 386.2156740611871 584.7263035534816 386.2156740611871 591.123027696678 389.9091930275157L704.7341411798515 455.50249248747883C711.1308653230479 459.1949777233383 715.0714458715071 466.02070001123855 715.0714458715071 473.4067042134266V604.593303133353C715.0714458715071 611.9793073355411 711.1308653230479 618.8050296234413 704.7341411798515 622.4985485897699L591.123027696678 688.091848049733C584.7263035534816 691.7843332855925 576.8451424565632 691.7843332855925 570.4484183133666 688.0908143192639L456.8373048301933 622.4975148593007C450.4405806869968 618.8050296234413 446.5000001385376 611.9793073355411 446.5000001385376 604.593303133353V473.4067042134266C446.5000001385376 466.02070001123855 450.4405806869968 459.1949777233383 456.8373048301933 455.5014587570097L570.4484183133666 389.9081592970465Z " stroke-width="7.75" stroke="#d665c2" fill="none" opacity="0.4214285714285715" transform="rotate(75.71428571428572, 400, 400)"></path><path d="M559.4781414769309 366.0502495228146C566.2763621354983 362.12600191576826 574.6521918544572 362.12600191576826 581.4504125130247 366.0513481363664L702.1924363105674 435.7616738390294C708.9906569691348 439.6859214460758 713.1785718286142 446.94006672864214 713.1785718286142 454.7896605562867V594.2103119616127C713.1785718286142 602.0599057892573 708.9906569691348 609.3140510718237 702.1924363105674 613.2393972924218L581.4504125130247 682.9497229950848C574.6521918544572 686.8739706021311 566.2763621354983 686.8739706021311 559.4781414769309 682.9486243815329L438.73611767938814 613.23829867887C431.93789702082074 609.3140510718237 427.7499821613413 602.0599057892573 427.7499821613413 594.2103119616127V454.7896605562867C427.7499821613413 446.94006672864214 431.93789702082074 439.6859214460758 438.73611767938814 435.7605752254776L559.4781414769309 366.0502495228146Z " stroke-width="8.125" stroke="#d268c6" fill="none" opacity="0.4535714285714286" transform="rotate(73.28571428571429, 400, 400)"></path><path d="M548.5078951580731 342.1923550073718C555.7076123320113 338.03634502913854 564.578110673011 338.03634502913854 571.7778278469492 342.19351850400625L699.6507619588613 416.02087044936906C706.8504791327995 420.1768804276023 711.2857283032993 427.8594487048348 711.2857283032993 436.1726321579358V583.8273360486614C711.2857283032993 592.1405195017625 706.8504791327995 599.8230877789949 699.6507619588613 603.9802612538626L571.7778278469492 677.8076131992254C564.578110673011 681.9636231774587 555.7076123320113 681.9636231774587 548.5078951580731 677.806449702591L420.634961046161 603.9790977572281C413.43524387222277 599.8230877789949 408.9999947017229 592.1405195017625 408.9999947017229 583.8273360486614V436.1726321579358C408.9999947017229 427.8594487048348 413.43524387222277 420.1768804276023 420.634961046161 416.0197069527346L548.5078951580731 342.1923550073718Z " stroke-width="8.5" stroke="#cd6cc9" fill="none" opacity="0.48571428571428577" transform="rotate(70.85714285714286, 400, 400)"></path><path d="M537.5376183216373 318.33447575071807C545.1388320109463 313.9467034012979 554.5039989739867 313.9467034012979 562.1052126632958 318.33570413043515L697.109057089577 396.28008231849776C704.7102707788862 400.66785466791794 709.3928542604064 408.7788459398165 709.3928542604064 417.55561901837405V573.4443753944993C709.3928542604064 582.2211484730567 704.7102707788862 590.3321397449553 697.109057089577 594.7211404740926L562.1052126632958 672.6655186621551C554.5039989739867 677.0532910115753 545.1388320109463 677.0532910115753 537.5376183216373 672.6642902824381L402.5337738953558 594.7199120943756C394.93256020604673 590.3321397449553 390.2499767245266 582.2211484730567 390.2499767245266 573.4443753944993V417.55561901837405C390.2499767245266 408.7788459398165 394.93256020604673 400.66785466791794 402.5337738953558 396.2788539387807L537.5376183216373 318.33447575071807Z " stroke-width="8.875" stroke="#c86fcd" fill="none" opacity="0.5178571428571429" transform="rotate(68.42857142857143, 400, 400)"></path><path d="M526.5673720027796 294.47658123527526C534.5700822074596 289.8570465146681 544.4299177925404 289.8570465146681 552.4326279972204 294.477874498075L694.5673827378712 376.5392789288374C702.5700929425511 381.1588136494445 707.5000107350916 389.69822791600916 707.5000107350916 398.93859062002315V563.061399481548C707.5000107350916 572.301762185562 702.5700929425511 580.8411764521265 694.5673827378712 585.4620044355335L552.4326279972204 667.5234088662959C544.4299177925404 672.142943586903 534.5700822074596 672.142943586903 526.5673720027796 667.5221156034962L384.43261726212876 585.4607111727338C376.4299070574488 580.8411764521265 371.4999892649084 572.301762185562 371.4999892649084 563.061399481548V398.93859062002315C371.4999892649084 389.69822791600916 376.4299070574488 381.1588136494445 384.43261726212876 376.5379856660377L526.5673720027796 294.47658123527526Z " stroke-width="9.25" stroke="#c472d1" fill="none" opacity="0.55" transform="rotate(66, 400, 400)"></path><path d="M515.5970951663438 270.6187019786215C524.0013018863947 265.7674048868274 534.3558060935161 265.7674048868274 542.7600128135668 270.6200601245039L692.0256778685872 356.7984907979661C700.429884588638 361.64978788976015 705.6071366921987 370.6176251509909 705.6071366921987 380.3215774804614V552.6784388273859C705.6071366921987 562.3823911568563 700.429884588638 571.350228418087 692.0256778685872 576.2028836557635L542.7600128135668 662.3813143292257C534.3558060935161 667.2326114210198 524.0013018863947 667.2326114210198 515.5970951663438 662.3799561833434L366.3314301113236 576.2015255098811C357.92722339127283 571.350228418087 352.74997128771207 562.3823911568563 352.74997128771207 552.6784388273859V380.3215774804614C352.74997128771207 370.6176251509909 357.92722339127283 361.64978788976015 366.3314301113236 356.79713265208375L515.5970951663438 270.6187019786215Z " stroke-width="9.625" stroke="#bf75d4" fill="none" opacity="0.5821428571428572" transform="rotate(63.57142857142858, 400, 400)"></path><path d="M504.62684884748614 246.7607922043896C513.4325520829078 241.67773274140865 524.2817249120699 241.67773274140865 533.0874281474916 246.7622152333546L689.4840035168812 337.0576721495167C698.2897067523029 342.14073161249763 703.7142931668839 351.53699186839447 703.7142931668839 361.7045338233214V542.2954476556456C703.7142931668839 552.4629896105725 698.2897067523029 561.8592498664693 689.4840035168812 566.9437323584152L533.0874281474916 657.2391892745773C524.2817249120699 662.3222487375583 513.4325520829078 662.3222487375583 504.62684884748614 657.2377662456123L348.2302734780966 566.9423093294503C339.4245702426749 561.8592498664693 333.9999838280939 552.4629896105725 333.9999838280939 542.2954476556456V361.7045338233214C333.9999838280939 351.53699186839447 339.4245702426749 342.14073161249763 348.2302734780966 337.0562491205517L504.62684884748614 246.7607922043896Z " stroke-width="10" stroke="#b978d8" fill="none" opacity="0.6142857142857143" transform="rotate(61.142857142857146, 400, 400)"></path><path d="M493.6566025286284 222.9029282065249C502.86380227942095 217.58810637235703 514.2076437306237 217.58810637235703 523.4148434814161 222.90441611857256L686.9423291651751 317.31689927743446C696.1495289159675 322.6317211116023 701.821449641569 332.4564043621652 701.821449641569 343.08753594254864V531.9125022602724C701.821449641569 542.5436338406558 696.1495289159675 552.3683170912187 686.9423291651751 557.6846268374343L523.4148434814161 652.097109996296C514.2076437306237 657.411931830464 502.86380227942095 657.411931830464 493.6566025286284 652.0956220842485L330.1291168448695 557.6831389253866C320.92191709407695 552.3683170912187 315.2499963684756 542.5436338406558 315.2499963684756 531.9125022602724V343.08753594254864C315.2499963684756 332.4564043621652 320.92191709407695 322.6317211116023 330.1291168448695 317.3154113653868L493.6566025286284 222.9029282065249Z " stroke-width="10.375" stroke="#b47bdc" fill="none" opacity="0.6464285714285715" transform="rotate(58.714285714285715, 400, 400)"></path><path d="M482.6863256921927 199.0450336910821C492.295021958356 193.4984494857273 504.1335320315994 193.4984494857273 513.7422282977627 199.0465864862124L684.400624295891 297.57609588777404C694.0093205620544 303.1226800931289 699.9285755986762 313.37578633835784 699.9285755986762 324.4705075441978V521.5295263473212C699.9285755986762 532.6242475531611 694.0093205620544 542.8773537983901 684.400624295891 548.4254907988752L513.7422282977627 646.9550002004369C504.1335320315994 652.5015844057916 492.295021958356 652.5015844057916 482.6863256921927 646.9534474053066L312.0279296940643 548.423938003745C302.41923342790096 542.8773537983901 296.4999783912793 532.6242475531611 296.4999783912793 521.5295263473212V324.4705075441978C296.4999783912793 313.37578633835784 302.41923342790096 303.1226800931289 312.0279296940643 297.5745430926438L482.6863256921927 199.0450336910821Z " stroke-width="10.75" stroke="#af7edf" fill="none" opacity="0.6785714285714286" transform="rotate(56.28571428571429, 400, 400)"></path><path d="M471.716079373335 175.1871391756393C481.72627215486915 169.40879259909755 494.0594508501531 169.40879259909755 504.0696436316873 175.18875685385223L681.858949944185 277.8352924981137C691.8691427257193 283.61363907465545 698.0357320733613 294.2951683145505 698.0357320733613 305.8534791458469V511.14655043436994C698.0357320733613 522.7048612656663 691.8691427257193 533.3863905055614 681.858949944185 539.1663547603159L504.0696436316873 641.8128904045775C494.0594508501531 647.5912369811192 481.72627215486915 647.5912369811192 471.716079373335 641.8112727263646L293.9267730608372 539.1647370821031C283.916580279303 533.3863905055614 277.749990931661 522.7048612656663 277.749990931661 511.14655043436994V305.8534791458469C277.749990931661 294.2951683145505 283.916580279303 283.61363907465545 293.9267730608372 277.8336748199008L471.716079373335 175.1871391756393Z " stroke-width="11.125" stroke="#a980e2" fill="none" opacity="0.7107142857142857" transform="rotate(53.85714285714286, 400, 400)"></path><path d="M460.7458025368992 151.32924466019648C471.1574918338042 145.3191357124678 483.98533915112876 145.3191357124678 494.3970284480339 151.330927221492L679.317245074901 258.09448910845333C689.7289343718061 264.104598056182 696.1428580304683 275.21455029074315 696.1428580304683 287.23645074749606V500.7635745214187C696.1428580304683 512.7854749781716 689.7289343718061 523.8954272127328 679.317245074901 529.9072187217569L494.3970284480339 636.6707806087182C483.98533915112876 642.6808895564468 471.1574918338042 642.6808895564468 460.7458025368992 636.6690980474227L275.82558591003203 529.9055361604615C265.41389661312695 523.8954272127328 258.9999729544647 512.7854749781716 258.9999729544647 500.7635745214187V287.23645074749606C258.9999729544647 275.21455029074315 265.41389661312695 264.104598056182 275.82558591003203 258.09280654715786L460.7458025368992 151.32924466019648Z " stroke-width="11.5" stroke="#a483e6" fill="none" opacity="0.7428571428571429" transform="rotate(51.42857142857143, 400, 400)"></path><path d="M449.7755562180415 127.47131962717555C460.5887420303174 121.22944830825995 473.9112579696826 121.22944830825995 484.7244437819585 127.47306707155371L676.775570723195 238.35365520121485C687.588756535471 244.59552652013042 694.2500145051536 256.1339017493576 694.2500145051536 268.61939183156704V490.38056809088926C694.2500145051536 502.86605817309874 687.588756535471 514.404433402326 676.775570723195 520.6480521656197L484.7244437819585 631.5286402952809C473.9112579696826 637.7705116141965 460.5887420303174 637.7705116141965 449.7755562180415 631.5268928509026L257.724429276805 520.6463047212414C246.9112434645291 514.404433402326 240.2499854948465 502.86605817309874 240.2499854948465 490.38056809088926V268.61939183156704C240.2499854948465 256.1339017493576 246.9112434645291 244.59552652013042 257.724429276805 238.35190775683674L449.7755562180415 127.47131962717555Z " stroke-width="11.875" stroke="#9e86e9" fill="none" opacity="0.775" transform="rotate(49.00000000000001, 400, 400)"></path><path d="M438.8052793816057 103.6134556293108C450.01996170925247 97.13982193920833 463.8371462706583 97.13982193920833 475.05182859830506 103.61526795677167L674.233865853911 218.61288232913262C685.4485481815577 225.0865160192351 692.3571404622606 237.0533142431284 692.3571404622606 250.00239395079427V479.99762269551616C692.3571404622606 492.94670240318214 685.4485481815577 504.91350062707534 674.233865853911 511.3889466446386L475.05182859830506 626.3865610169996C463.8371462706583 632.8601947071021 450.01996170925247 632.8601947071021 438.8052793816057 626.3847486895388L239.6232421259998 511.3871343171779C228.40855979835305 504.91350062707534 221.49996751765013 492.94670240318214 221.49996751765013 479.99762269551616V250.00239395079427C221.49996751765013 237.0533142431284 228.40855979835305 225.0865160192351 239.6232421259998 218.61107000167186L438.8052793816057 103.6134556293108Z " stroke-width="12.25" stroke="#9788ec" fill="none" opacity="0.8071428571428572" transform="rotate(46.57142857142858, 400, 400)"></path><path d="M427.8350483215371 79.755561113868C439.4512271645547 73.05016505257859 453.76308034800115 73.05016505257859 465.3792591910187 79.75743832441151L671.6922067609942 198.87207893947226C683.3083856040116 205.5774750007617 690.4643121957349 217.97269621932105 690.4643121957349 231.38536555244343V469.61464678256493C690.4643121957349 483.0273161156874 683.3083856040116 495.4225373342467 671.6922067609942 502.12981060607956L465.3792591910187 621.2444512211404C453.76308034800115 627.9498472824298 439.4512271645547 627.9498472824298 427.8350483215371 621.242574010597L221.52210075156182 502.12793339553616C209.9059219085442 495.4225373342467 202.749995316821 483.0273161156874 202.749995316821 469.61464678256493V231.38536555244343C202.749995316821 217.97269621932105 209.9059219085442 205.5774750007617 221.52210075156182 198.87020172892886L427.8350483215371 79.755561113868Z " stroke-width="12.625" stroke="#918bf0" fill="none" opacity="0.8392857142857143" transform="rotate(44.142857142857146, 400, 400)"></path><path d="M416.86477148510124 55.89766659842519C428.88244684348973 48.96050816594885 443.68896864897675 48.96050816594885 455.70664400736524 55.899608692051345L669.1505018917098 179.1312755498119C681.1681772500983 186.06843398228824 688.5714381528419 198.8920781955137 688.5714381528419 212.7683371540926V459.2316708696137C688.5714381528419 473.1079298281926 681.1681772500983 485.931574041418 669.1505018917098 492.8706745675204L455.70664400736524 616.102341425281C443.68896864897675 623.0394998577574 428.88244684348973 623.0394998577574 416.86477148510124 616.1003993316549L203.4209136007566 492.8687324738944C191.40323824236816 485.931574041418 183.9999773396246 473.1079298281926 183.9999773396246 459.2316708696137V212.7683371540926C183.9999773396246 198.8920781955137 191.40323824236816 186.06843398228824 203.4209136007566 179.1293334561858L416.86477148510124 55.89766659842519Z " stroke-width="13" stroke="#8a8df3" fill="none" opacity="0.8714285714285716" transform="rotate(41.71428571428572, 400, 400)"></path><path d="M405.8945099074546 32.03977208298238C418.3136817812138 24.870851279319112 433.6148722087416 24.870851279319112 446.0340440825009 32.04177905969112L666.608812281215 159.3904721601516C679.0279841549741 166.55939296381484 686.6785793687382 179.81146017170636 686.6785793687382 194.1513087557417V448.8486949566625C686.6785793687382 463.1885435406979 679.0279841549741 476.4406107485895 666.608812281215 483.6115385289613L446.0340440825009 610.9602316294217C433.6148722087416 618.1291524330851 418.3136817812138 618.1291524330851 405.8945099074546 610.9582246527132L185.31974170874048 483.60953155225263C172.90056983498118 476.4406107485895 165.24997462121735 463.1885435406979 165.24997462121735 448.8486949566625V194.1513087557417C165.24997462121735 179.81146017170636 172.90056983498118 166.55939296381484 185.31974170874048 159.38846518344286L405.8945099074546 32.03977208298238Z " stroke-width="13.375" stroke="#8390f6" fill="none" opacity="0.9035714285714287" transform="rotate(39.28571428571429, 400, 400)"></path><path d="M394.92426358859694 8.181877567539573C407.74493197772705 0.7811943926893719 423.54079102729526 0.7811943926893719 436.3614594164255 8.183949427330958L664.0671379295088 139.6496687704912C676.8878063186389 147.05035194534133 684.7857358434233 160.73084214789895 684.7857358434233 175.5342803573908V438.46571904371115C684.7857358434233 453.26915725320305 676.8878063186389 466.94964745576067 664.0671379295088 474.35240249040214L436.3614594164255 605.8181218335624C423.54079102729526 613.2188050084125 407.74493197772705 613.2188050084125 394.92426358859694 605.816049973771L167.21858507551343 474.35033063061087C154.39791668638327 466.94964745576067 146.49998716159917 453.26915725320305 146.49998716159917 438.46571904371115V175.5342803573908C146.49998716159917 160.73084214789895 154.39791668638327 147.05035194534133 167.21858507551343 139.6475969106998L394.92426358859694 8.181877567539573Z " stroke-width="13.75" stroke="#7c92f9" fill="none" opacity="0.9357142857142858" transform="rotate(36.85714285714286, 400, 400)"></path><path d="M383.9539867521611 -15.676016947903236C397.176151656662 -23.308462493940368 413.46667932827097 -23.308462493940368 426.6888442327719 -15.673880205029207L661.5254330602248 119.90886538083083C674.7475979647257 127.54131092686794 682.8928618005302 141.65022412409166 682.8928618005302 156.91725195903996V428.08274313076004C682.8928618005302 443.34977096570833 674.7475979647257 457.45868416293206 661.5254330602248 465.0932664518431L426.6888442327719 600.6760120377031C413.46667932827097 608.3084575837402 397.176151656662 608.3084575837402 383.9539867521611 600.6738752948291L149.1173979247082 465.0911297089691C135.89523302020723 457.45868416293206 127.74996918440274 443.34977096570833 127.74996918440274 428.08274313076004V156.91725195903996C127.74996918440274 141.65022412409166 135.89523302020723 127.54131092686794 149.1173979247082 119.9067286379568L383.9539867521611 -15.676016947903236Z " stroke-width="14.125" stroke="#7495fc" fill="none" opacity="0.967857142857143" transform="rotate(34.42857142857143, 400, 400)"></path><path d="M372.9837404333034 -39.533911463346044C386.60740185317525 -47.39811938057011 403.39259814682475 -47.39811938057011 417.0162595666966 -39.53170983738937L658.9837587085188 100.16806199117048C672.6074201283907 108.03226990839448 681.0000182752154 122.56960610028432 681.0000182752154 138.30022356068912V417.6997672178088C681.0000182752154 433.4303846782136 672.6074201283907 447.96772087010334 658.9837587085188 455.834130413284L417.0162595666966 595.5339022418439C403.39259814682475 603.3981101590679 386.60740185317525 603.3981101590679 372.9837404333034 595.5317006158872L131.01624129148115 455.83192878732734C117.39257987160931 447.96772087010334 108.99998172478456 433.4303846782136 108.99998172478456 417.6997672178088V138.30022356068912C108.99998172478456 122.56960610028432 117.39257987160931 108.03226990839448 131.01624129148115 100.16586036521386L372.9837404333034 -39.533911463346044Z " stroke-width="14.5" stroke="#6b97ff" fill="none" opacity="1.0000000000000002" transform="rotate(32, 400, 400)"></path></g></svg>